# xmcd
#
# Track frame offsets:
#	150
#	12068
#	23123
#	39370
#	53468
#	68850
#	82775
#	97083
#	111990
#	125380
#	135798
#	149658
#	161435
#	176200
#	186043
#	202508
#	216078
#	230553
#	242820
#	260195
#	272123
#	284858
#
# Disc length: 3941 seconds
#
# Revision: 1
# Processed by: cddbd v1.5.1PL0 Copyright (c) Steve Scherf et al.
# Submitted via: CDex 1.50Beta5
#
DISCID=3a0f6316
DTITLE=秀夕木・他 - 特撮テレビヒーロー主題歌集 [CD2]
DYEAR=1900
DGENRE=(Doyo)
TTITLE0=鉄人タイガーセブン
TTITLE1=走れ!タイガーセブン
TTITLE2=フラッシュ!イナズマン
TTITLE3=イナズマン・アクション
TTITLE4=進め!ゴレンジャー
TTITLE5=秘密戦隊ゴレンジャー
TTITLE6=勝利だ!アクマイザー3
TTITLE7=すすめザイダベック
TTITLE8=宇宙鉄人キョーダイン
TTITLE9=キョーダインとは俺たちだ
TTITLE10=輝く太陽カゲスター
TTITLE11=スター!スター!カゲスター
TTITLE12=斗え忍者キャプター
TTITLE13=大空のキャプター
TTITLE14=斗え!!超人ビビューン
TTITLE15=われらの超人ビビューン
TTITLE16=地獄のズバット
TTITLE17=男はひとり道をゆく
TTITLE18=オー!!大鉄人17
TTITLE19=ワンセブン賛歌
TTITLE20=ジャッカー電撃隊
TTITLE21=いつか花は咲くだろう
EXTD=
EXTT0=
EXTT1=
EXTT2=
EXTT3=
EXTT4=
EXTT5=
EXTT6=
EXTT7=
EXTT8=
EXTT9=
EXTT10=
EXTT11=
EXTT12=
EXTT13=
EXTT14=
EXTT15=
EXTT16=
EXTT17=
EXTT18=
EXTT19=
EXTT20=
EXTT21=
PLAYORDER=
